<svg width="64" height="64" xmlns="http://www.w3.org/2000/svg">

 <g>
  <title>Layer 1</title>
  <rect stroke="#00ffff" id="svg_6" height="62.94836" width="63.32643" y="0.4313" x="0.05323" fill="#0fffff"/>
  <path id="svg_3" d="m41.42667,32.83052c-2.07546,-0.78321 -2.90418,-2.93574 -2.90418,-2.93574s-0.93506,0.48756 -0.93506,-0.88176s0.93506,0.88176 1.87012,-4.40533c0,0 2.59249,-0.68639 2.07546,-6.36249l-0.62337,0c0,0 1.5566,-6.06857 0,-8.12428c-1.55843,-2.05571 -2.17997,-3.42503 -5.60668,-4.40533s-2.17814,-0.78494 -4.66979,-0.68466c-2.49166,0.09855 -4.56895,1.36932 -4.56895,2.05398c0,0 -1.5566,0.09855 -2.17814,0.68639c-0.62337,0.58784 -1.6611,3.32648 -1.6611,4.01287s0.51887,5.28709 1.03773,6.26567l-0.61787,0.19537c-0.51887,5.6761 2.07546,6.36249 2.07546,6.36249c0.93322,5.28709 1.86828,3.03602 1.86828,4.40533s-0.93506,0.88176 -0.93506,0.88176s-0.82872,2.15253 -2.90418,2.93574c-2.07546,0.78148 -13.59685,4.98972 -14.53374,5.87147c-0.93689,0.88349 -0.83055,4.99317 -0.83055,4.99317l49.40591,0c0,0 0.10817,-4.10969 -0.82872,-4.99317c-0.93873,-0.88176 -12.46011,-5.08999 -14.53557,-5.87147zm-22.86309,-0.29738c-0.18151,-0.31121 -0.27135,-0.53597 -0.27135,-0.53597s-0.79205,0.41322 -0.79205,-0.7469s0.79205,0.7469 1.5841,-3.73278c0,0 2.1983,-0.58092 1.75828,-5.39256l-0.52803,0c0,0 0.26218,-1.0218 0.43453,-2.3064c-0.00733,-0.53251 0.011,-1.0996 0.06784,-1.72202l0.06967,-0.73653c-0.0385,-0.85064 -0.19618,-1.62347 -0.57204,-2.11968c-1.32008,-1.74104 -1.84812,-2.90289 -4.75046,-3.73278c-2.90235,-0.82989 -1.84812,-0.66564 -3.95841,-0.58092c-2.11213,0.08299 -3.87224,1.16012 -3.87224,1.74277c0,0 -1.32008,0.08299 -1.84812,0.58092c-0.49686,0.46854 -1.29258,2.52771 -1.38792,3.25905l0,0.48583c0.08617,1.129 0.47303,4.23417 0.85989,4.96551l-0.52437,0.16598c-0.43819,4.81164 1.75828,5.39256 1.75828,5.39256c0.79205,4.47968 1.5841,2.57266 1.5841,3.73278s-0.79205,0.7469 -0.79205,0.7469s-0.70221,1.82749 -2.46232,2.48794c-0.11184,0.04149 -0.25485,0.09682 -0.42536,0.15906l0,9.04926l1.05423,0c-0.05317,-2.20958 0.14118,-5.0606 1.36775,-6.2138c0.65271,-0.61377 2.79234,-1.62347 11.64606,-4.94822zm40.94088,-15.65727c-0.07334,-0.65354 -0.23285,-1.23619 -0.53537,-1.63558c-1.31825,-1.74277 -1.84812,-2.90289 -4.74863,-3.73278c-2.90418,-0.82989 -1.84812,-0.66564 -3.96025,-0.58092c-2.1103,0.08299 -3.87041,1.16012 -3.87041,1.74277c0,0 -1.31825,0.08299 -1.84812,0.58092c-0.49686,0.47027 -1.29991,2.545 -1.38975,3.26942l0.0605,0l0.14668,1.57852c0.03667,0.39938 0.04034,0.75382 0.0495,1.11517c0.16501,1.15147 0.38502,2.33407 0.60504,2.74728l-0.52437,0.16598c-0.43819,4.81164 1.76011,5.39256 1.76011,5.39256c0.79205,4.47968 1.58227,2.57266 1.58227,3.73278s-0.79205,0.7469 -0.79205,0.7469s-0.09717,0.24551 -0.29885,0.58438c8.74554,3.28498 10.86684,4.28777 11.51222,4.89981c1.22841,1.1532 1.42092,4.00249 1.36775,6.2138l0.88005,0l0,-9.17375c-0.02934,-0.01037 -0.06967,-0.02593 -0.09534,-0.03631c-1.75828,-0.66218 -2.46232,-2.48794 -2.46232,-2.48794s-0.79388,0.41322 -0.79388,-0.7469s0.79388,0.7469 1.5841,-3.73278c0,0 1.47409,-0.39593 1.76561,-3.18298l0,-2.12141c-0.00183,-0.03112 -0.00183,-0.05705 -0.0055,-0.08818l-0.52987,0c0,0 0.39419,-1.53876 0.53537,-3.21755l0,-2.03323l0.0055,0z" stroke="#ffffff" fill="#fff"/>
  <path id="svg_4" d="m5.72426,54.47585l15.23558,-5.95459l0,2.97729l22.08034,0l0,-2.97729l15.23557,5.95459l-15.23557,5.95456l0,-2.97728l-22.08034,0l0,2.97728l-15.23558,-5.95456z" stroke="#ffffff" fill="#fff"/>
  <path id="svg_5" d="m90.15257,55.53685l0.43248,-0.43248l0,0.21624l0.62678,0l0,-0.21624l0.43248,0.43248l-0.43248,0.43248l0,-0.21624l-0.62678,0l0,0.21624l-0.43248,-0.43248z" stroke="#ffffff" fill="#fff"/>
 </g>
</svg>